<?xml version="1.0" encoding="UTF-8"?>
<svg id="Calque_1" data-name="Calque 1" xmlns="http://www.w3.org/2000/svg" viewBox="0 0 487.17 470.74">
  <defs>
    <style>
      .cls-1 {
        fill: #e4ae51;
      }

      .cls-1, .cls-2, .cls-3, .cls-4, .cls-5, .cls-6 {
        fill-rule: evenodd;
      }

      .cls-2 {
        fill: #191919;
      }

      .cls-3 {
        fill: #302019;
      }

      .cls-4 {
        fill: #000003;
      }

      .cls-5 {
        fill: #ce9420;
      }

      .cls-6 {
        fill: #593a2f;
      }
    </style>
  </defs>
  <polygon class="cls-3" points="220.46 245.76 325.44 368.13 399.08 341.65 220.46 245.76"/>
  <polygon class="cls-6" points="305.57 432.01 319.32 361 220.46 245.75 217.48 248.13 305.57 432.01"/>
  <polygon class="cls-2" points="135.74 354.13 168.04 335.74 207.17 248.28 135.74 354.13"/>
  <polygon class="cls-4" points="291.51 343.1 220.46 245.75 319.32 361 291.51 343.1"/>
  <polygon class="cls-3" points="207.17 248.28 203.46 238.66 0 225.48 10.88 356.42 93.39 369.79 207.17 248.28"/>
  <polygon class="cls-3" points="204.56 235.01 51.87 183.23 48.98 105.02 204.56 235.01"/>
  <polygon class="cls-6" points="399.08 341.65 487.17 229.51 483.76 194.55 369.8 178.28 217.98 238.74 207.17 248.28 207.17 248.28 217.48 248.13 220.46 245.76 399.08 341.65"/>
  <polygon class="cls-6" points="0 225.48 58.64 185.53 204.56 235.01 203.47 238.66 0 225.48"/>
  <polygon class="cls-3" points="135.74 354.13 140.19 319.81 207.17 248.28 135.74 354.13"/>
  <polygon class="cls-4" points="78.83 200.9 204.56 235.01 58.64 185.53 78.83 200.9"/>
  <path class="cls-4" d="M207.17,248.28c-19.77,21.11-32.96,44.26-66.98,71.53l66.98-71.53Z"/>
  <polygon class="cls-6" points="207.17 248.28 203.46 238.66 204.56 235.01 48.98 105.02 136.03 3.05 162.6 0 213.24 88.05 211.99 234.7 207.17 248.28 207.17 248.28"/>
  <polygon class="cls-1" points="474.77 193.27 428.95 244.64 406.45 210.72 423.03 185.88 474.77 193.27"/>
  <polygon class="cls-1" points="396.66 247.17 369.51 262 358.71 285.66 382.26 304.43 409.49 276.44 396.66 247.17"/>
  <polygon class="cls-3" points="139.59 399.34 207.17 248.28 217.48 248.13 305.57 432.01 180.01 470.74 139.59 399.34"/>
  <polygon class="cls-5" points="344.97 341.28 312.26 352.77 294.98 332.63 314.44 319.23 339.72 325.26 344.97 341.28"/>
  <polygon class="cls-5" points="268.74 355.14 181.51 390.93 206.23 404.04 284.91 388.88 268.74 355.14"/>
  <path class="cls-1" d="M268.74,355.14s17.36-2.12,17.91-1.85c.54.26,13.85,12.05,13.85,12.05l-15.59,23.54-16.17-33.74Z"/>
  <polygon class="cls-1" points="163.94 2.33 132.64 62.37 172.33 71.4 189.69 47.1 163.94 2.33"/>
  <polygon class="cls-1" points="141.72 93.47 137.46 124.11 119.16 142.59 93.28 127.22 109.8 91.83 141.72 93.47"/>
  <polygon class="cls-5" points="75.67 156.36 76.52 191.03 101.47 200.05 107.11 177.1 92.52 155.6 75.67 156.36"/>
  <polygon class="cls-5" points="86.52 231.08 83.95 325.34 62.93 306.86 49.37 228.68 86.52 231.08"/>
  <path class="cls-1" d="M86.52,231.08s-4.17-16.99-4.61-17.4c-.44-.42-16.17-8.68-16.17-8.68l-16.36,23.68,37.15,2.41Z"/>
  <polygon class="cls-3" points="204.56 235.01 212.2 210.26 229.77 212.96 207.17 248.28 204.56 235.01"/>
  <polygon class="cls-2" points="224.1 240.88 241.3 229.45 229.77 212.96 207.17 248.28 224.1 240.88"/>
  <polygon class="cls-2" points="227.55 212.62 229.22 110.1 220.99 211.61 227.55 212.62"/>
  <polygon class="cls-2" points="233.42 218.19 331.68 173.64 237.23 223.62 233.42 218.19"/>
</svg>